<svg width="125" height="27" viewBox="0 0 125 27" fill="none" xmlns="http://www.w3.org/2000/svg">
<g filter="url(#filter0_d_4_4)">
<mask id="path-1-outside-1_4_4" maskUnits="userSpaceOnUse" x="4" y="0" width="117" height="19" fill="black">
<rect fill="white" x="4" width="117" height="19"/>
<path d="M13.7315 5.45526C13.6591 5.18679 13.5526 4.95028 13.4119 4.74574C13.2713 4.53693 13.0987 4.36009 12.8942 4.2152C12.6896 4.07031 12.4553 3.96165 12.1911 3.8892C11.9268 3.8125 11.6371 3.77415 11.3217 3.77415C10.6868 3.77415 10.1371 3.92756 9.67259 4.23438C9.21236 4.54119 8.85653 4.98864 8.60511 5.5767C8.35369 6.16051 8.22798 6.87003 8.22798 7.70526C8.22798 8.54475 8.34943 9.26065 8.59233 9.85298C8.83523 10.4453 9.18679 10.897 9.64702 11.2081C10.1072 11.5192 10.6655 11.6747 11.3217 11.6747C11.9013 11.6747 12.3913 11.581 12.7919 11.3935C13.1967 11.2017 13.5036 10.9311 13.7124 10.5817C13.9212 10.2322 14.0256 9.82102 14.0256 9.34801L14.6136 9.41832H11.4304V7.1108H17.0746V8.84304C17.0746 10.0149 16.8253 11.0185 16.3267 11.8537C15.8324 12.6889 15.1506 13.3303 14.2812 13.7777C13.4162 14.2251 12.4212 14.4489 11.2962 14.4489C10.0476 14.4489 8.95028 14.1783 8.00426 13.6371C7.05824 13.0959 6.32102 12.3246 5.79261 11.3232C5.2642 10.3175 5 9.12429 5 7.74361C5 6.66974 5.1598 5.71733 5.4794 4.88636C5.79901 4.05114 6.24432 3.34375 6.81534 2.7642C7.39062 2.18466 8.0554 1.74574 8.80966 1.44744C9.56818 1.14915 10.3842 1 11.2578 1C12.0163 1 12.7216 1.10866 13.3736 1.32599C14.0298 1.54332 14.6094 1.85014 15.1122 2.24645C15.6193 2.64276 16.0305 3.11364 16.3459 3.65909C16.6612 4.20455 16.8572 4.80327 16.9339 5.45526H13.7315Z"/>
<path d="M25.274 10.032V4.4517H28.3933V14.2699H25.4146V12.4418H25.3123C25.095 13.0426 24.7243 13.5199 24.2001 13.8736C23.6802 14.223 23.0517 14.3977 22.3145 14.3977C21.6454 14.3977 21.0574 14.2443 20.5502 13.9375C20.0431 13.6307 19.649 13.2024 19.3677 12.6527C19.0865 12.0987 18.9437 11.451 18.9395 10.7095V4.4517H22.0652V10.0959C22.0694 10.6286 22.2101 11.0483 22.487 11.3551C22.764 11.6619 23.1412 11.8153 23.6184 11.8153C23.9295 11.8153 24.2086 11.7472 24.4558 11.6108C24.7072 11.4702 24.9054 11.2678 25.0502 11.0036C25.1994 10.7351 25.274 10.4112 25.274 10.032Z"/>
<path d="M33.5085 1.17898V14.2699H30.3828V1.17898H33.5085Z"/>
<path d="M37.4093 17.9517C37.0343 17.9517 36.6806 17.9219 36.3482 17.8622C36.0158 17.8068 35.7303 17.7322 35.4917 17.6385L36.182 15.3693C36.4888 15.4716 36.7658 15.5313 37.013 15.5483C37.2644 15.5653 37.4796 15.5249 37.6586 15.4268C37.8418 15.3331 37.9824 15.1648 38.0804 14.9219L38.2019 14.6278L34.7118 4.4517H37.9846L39.7935 11.4574H39.8958L41.7303 4.4517H45.0222L41.3212 15.2095C41.1422 15.7464 40.8887 16.2195 40.5605 16.6286C40.2367 17.0419 39.8169 17.3658 39.3013 17.6001C38.7899 17.8345 38.1593 17.9517 37.4093 17.9517Z"/>
<path d="M48.7248 14.4361C48.0984 14.4361 47.5423 14.3317 47.0565 14.1229C46.5749 13.9098 46.1935 13.5902 45.9123 13.1641C45.6353 12.7337 45.4968 12.1946 45.4968 11.5469C45.4968 11.0014 45.5927 10.5412 45.7844 10.1662C45.9762 9.79119 46.2404 9.48651 46.5771 9.25213C46.9137 9.01776 47.3015 8.84091 47.7404 8.72159C48.1793 8.59801 48.6481 8.51492 49.1467 8.4723C49.7049 8.42117 50.1545 8.3679 50.4954 8.3125C50.8363 8.25284 51.0835 8.16974 51.2369 8.06321C51.3945 7.95241 51.4734 7.79688 51.4734 7.59659V7.56463C51.4734 7.23651 51.3604 6.98295 51.1346 6.80398C50.9087 6.625 50.604 6.53551 50.2205 6.53551C49.8072 6.53551 49.4748 6.625 49.2234 6.80398C48.9719 6.98295 48.8121 7.23011 48.744 7.54545L45.8611 7.44318C45.9464 6.84659 46.1658 6.31392 46.5195 5.84517C46.8775 5.37216 47.3675 5.00142 47.9897 4.73295C48.6161 4.46023 49.3683 4.32386 50.2461 4.32386C50.8725 4.32386 51.4499 4.39844 51.9783 4.54759C52.5067 4.69247 52.967 4.90554 53.359 5.18679C53.7511 5.46378 54.0536 5.80469 54.2667 6.20952C54.484 6.61435 54.5927 7.0767 54.5927 7.59659V14.2699H51.6523V12.902H51.5756C51.4009 13.2344 51.1772 13.5156 50.9045 13.7457C50.636 13.9759 50.3185 14.1484 49.9521 14.2635C49.5898 14.3786 49.1808 14.4361 48.7248 14.4361ZM49.69 12.3906C50.0266 12.3906 50.3292 12.3224 50.5977 12.1861C50.8704 12.0497 51.0877 11.8622 51.2496 11.6236C51.4116 11.3807 51.4925 11.0994 51.4925 10.7798V9.84659C51.4031 9.89347 51.2944 9.93608 51.1665 9.97443C51.043 10.0128 50.9066 10.049 50.7575 10.0831C50.6083 10.1172 50.4549 10.147 50.2972 10.1726C50.1396 10.1982 49.9883 10.2216 49.8434 10.2429C49.5494 10.2898 49.2979 10.3622 49.0891 10.4602C48.8846 10.5582 48.7269 10.6861 48.6161 10.8438C48.5096 10.9972 48.4563 11.1804 48.4563 11.3935C48.4563 11.7173 48.5714 11.9645 48.8015 12.1349C49.0359 12.3054 49.332 12.3906 49.69 12.3906Z"/>
<path d="M61.0934 14.4553C60.0664 14.4553 59.18 14.2528 58.4343 13.848C57.6928 13.4389 57.1218 12.8572 56.7212 12.103C56.3249 11.3445 56.1268 10.4432 56.1268 9.39915C56.1268 8.38494 56.3271 7.49858 56.7276 6.74006C57.1282 5.97727 57.6928 5.38494 58.4215 4.96307C59.1502 4.53693 60.0089 4.32386 60.9975 4.32386C61.6964 4.32386 62.3356 4.43253 62.9151 4.64986C63.4947 4.86719 63.9954 5.18892 64.4173 5.61506C64.8391 6.04119 65.1673 6.56747 65.4016 7.19389C65.636 7.81605 65.7532 8.52983 65.7532 9.33523V10.1151H57.2198V8.29972H62.8448C62.8406 7.96733 62.7617 7.67117 62.6083 7.41122C62.4549 7.15128 62.244 6.94886 61.9755 6.80398C61.7113 6.65483 61.4066 6.58026 61.0614 6.58026C60.712 6.58026 60.3988 6.65909 60.1218 6.81676C59.8448 6.97017 59.6254 7.18111 59.4634 7.44957C59.3015 7.71378 59.2163 8.0142 59.2077 8.35085V10.1982C59.2077 10.5987 59.2866 10.9503 59.4442 11.2528C59.6019 11.5511 59.8256 11.7834 60.1154 11.9496C60.4052 12.1158 60.7504 12.1989 61.1509 12.1989C61.4279 12.1989 61.6793 12.1605 61.9052 12.0838C62.131 12.0071 62.3249 11.8942 62.4869 11.745C62.6488 11.5959 62.7702 11.4126 62.8512 11.1953L65.7212 11.2784C65.6019 11.9219 65.3398 12.4822 64.935 12.9595C64.5344 13.4325 64.0082 13.8011 63.3562 14.0653C62.7042 14.3253 61.9499 14.4553 61.0934 14.4553Z"/>
<path d="M76.6101 4.4517L73.2415 14.2699H69.6619L66.2997 4.4517H69.5916L71.4006 11.2145H71.5028L73.3182 4.4517H76.6101Z"/>
<path d="M86.3995 5.45526C86.3271 5.18679 86.2205 4.95028 86.0799 4.74574C85.9393 4.53693 85.7667 4.36009 85.5621 4.2152C85.3576 4.07031 85.1232 3.96165 84.859 3.8892C84.5948 3.8125 84.305 3.77415 83.9897 3.77415C83.3548 3.77415 82.805 3.92756 82.3406 4.23438C81.8803 4.54119 81.5245 4.98864 81.2731 5.5767C81.0217 6.16051 80.896 6.87003 80.896 7.70526C80.896 8.54475 81.0174 9.26065 81.2603 9.85298C81.5032 10.4453 81.8548 10.897 82.315 11.2081C82.7752 11.5192 83.3335 11.6747 83.9897 11.6747C84.5692 11.6747 85.0593 11.581 85.4599 11.3935C85.8647 11.2017 86.1715 10.9311 86.3803 10.5817C86.5891 10.2322 86.6935 9.82102 86.6935 9.34801L87.2816 9.41832H84.0984V7.1108H89.7425V8.84304C89.7425 10.0149 89.4933 11.0185 88.9947 11.8537C88.5004 12.6889 87.8185 13.3303 86.9492 13.7777C86.0842 14.2251 85.0891 14.4489 83.9641 14.4489C82.7156 14.4489 81.6182 14.1783 80.6722 13.6371C79.7262 13.0959 78.989 12.3246 78.4606 11.3232C77.9322 10.3175 77.668 9.12429 77.668 7.74361C77.668 6.66974 77.8278 5.71733 78.1474 4.88636C78.467 4.05114 78.9123 3.34375 79.4833 2.7642C80.0586 2.18466 80.7234 1.74574 81.4776 1.44744C82.2361 1.14915 83.0522 1 83.9258 1C84.6843 1 85.3896 1.10866 86.0415 1.32599C86.6978 1.54332 87.2773 1.85014 87.7802 2.24645C88.2873 2.64276 88.6985 3.11364 89.0138 3.65909C89.3292 4.20455 89.5252 4.80327 89.6019 5.45526H86.3995Z"/>
<path d="M90.3929 1.17898H93.9277L96.6955 6.65696H96.8105L99.5783 1.17898H103.113L98.3255 9.89773V14.2699H95.1806V9.89773L90.3929 1.17898Z"/>
<path d="M104.439 1.17898H108.358L111.682 9.28409H111.835L115.159 1.17898H119.077V14.2699H115.996V6.22869H115.888L112.743 14.1868H110.774L107.629 6.18395H107.52V14.2699H104.439V1.17898Z"/>
</mask>
<path d="M13.7315 5.45526C13.6591 5.18679 13.5526 4.95028 13.4119 4.74574C13.2713 4.53693 13.0987 4.36009 12.8942 4.2152C12.6896 4.07031 12.4553 3.96165 12.1911 3.8892C11.9268 3.8125 11.6371 3.77415 11.3217 3.77415C10.6868 3.77415 10.1371 3.92756 9.67259 4.23438C9.21236 4.54119 8.85653 4.98864 8.60511 5.5767C8.35369 6.16051 8.22798 6.87003 8.22798 7.70526C8.22798 8.54475 8.34943 9.26065 8.59233 9.85298C8.83523 10.4453 9.18679 10.897 9.64702 11.2081C10.1072 11.5192 10.6655 11.6747 11.3217 11.6747C11.9013 11.6747 12.3913 11.581 12.7919 11.3935C13.1967 11.2017 13.5036 10.9311 13.7124 10.5817C13.9212 10.2322 14.0256 9.82102 14.0256 9.34801L14.6136 9.41832H11.4304V7.1108H17.0746V8.84304C17.0746 10.0149 16.8253 11.0185 16.3267 11.8537C15.8324 12.6889 15.1506 13.3303 14.2812 13.7777C13.4162 14.2251 12.4212 14.4489 11.2962 14.4489C10.0476 14.4489 8.95028 14.1783 8.00426 13.6371C7.05824 13.0959 6.32102 12.3246 5.79261 11.3232C5.2642 10.3175 5 9.12429 5 7.74361C5 6.66974 5.1598 5.71733 5.4794 4.88636C5.79901 4.05114 6.24432 3.34375 6.81534 2.7642C7.39062 2.18466 8.0554 1.74574 8.80966 1.44744C9.56818 1.14915 10.3842 1 11.2578 1C12.0163 1 12.7216 1.10866 13.3736 1.32599C14.0298 1.54332 14.6094 1.85014 15.1122 2.24645C15.6193 2.64276 16.0305 3.11364 16.3459 3.65909C16.6612 4.20455 16.8572 4.80327 16.9339 5.45526H13.7315Z" fill="#AC8D8D"/>
<path d="M25.274 10.032V4.4517H28.3933V14.2699H25.4146V12.4418H25.3123C25.095 13.0426 24.7243 13.5199 24.2001 13.8736C23.6802 14.223 23.0517 14.3977 22.3145 14.3977C21.6454 14.3977 21.0574 14.2443 20.5502 13.9375C20.0431 13.6307 19.649 13.2024 19.3677 12.6527C19.0865 12.0987 18.9437 11.451 18.9395 10.7095V4.4517H22.0652V10.0959C22.0694 10.6286 22.2101 11.0483 22.487 11.3551C22.764 11.6619 23.1412 11.8153 23.6184 11.8153C23.9295 11.8153 24.2086 11.7472 24.4558 11.6108C24.7072 11.4702 24.9054 11.2678 25.0502 11.0036C25.1994 10.7351 25.274 10.4112 25.274 10.032Z" fill="#AC8D8D"/>
<path d="M33.5085 1.17898V14.2699H30.3828V1.17898H33.5085Z" fill="#AC8D8D"/>
<path d="M37.4093 17.9517C37.0343 17.9517 36.6806 17.9219 36.3482 17.8622C36.0158 17.8068 35.7303 17.7322 35.4917 17.6385L36.182 15.3693C36.4888 15.4716 36.7658 15.5313 37.013 15.5483C37.2644 15.5653 37.4796 15.5249 37.6586 15.4268C37.8418 15.3331 37.9824 15.1648 38.0804 14.9219L38.2019 14.6278L34.7118 4.4517H37.9846L39.7935 11.4574H39.8958L41.7303 4.4517H45.0222L41.3212 15.2095C41.1422 15.7464 40.8887 16.2195 40.5605 16.6286C40.2367 17.0419 39.8169 17.3658 39.3013 17.6001C38.7899 17.8345 38.1593 17.9517 37.4093 17.9517Z" fill="#AC8D8D"/>
<path d="M48.7248 14.4361C48.0984 14.4361 47.5423 14.3317 47.0565 14.1229C46.5749 13.9098 46.1935 13.5902 45.9123 13.1641C45.6353 12.7337 45.4968 12.1946 45.4968 11.5469C45.4968 11.0014 45.5927 10.5412 45.7844 10.1662C45.9762 9.79119 46.2404 9.48651 46.5771 9.25213C46.9137 9.01776 47.3015 8.84091 47.7404 8.72159C48.1793 8.59801 48.6481 8.51492 49.1467 8.4723C49.7049 8.42117 50.1545 8.3679 50.4954 8.3125C50.8363 8.25284 51.0835 8.16974 51.2369 8.06321C51.3945 7.95241 51.4734 7.79688 51.4734 7.59659V7.56463C51.4734 7.23651 51.3604 6.98295 51.1346 6.80398C50.9087 6.625 50.604 6.53551 50.2205 6.53551C49.8072 6.53551 49.4748 6.625 49.2234 6.80398C48.9719 6.98295 48.8121 7.23011 48.744 7.54545L45.8611 7.44318C45.9464 6.84659 46.1658 6.31392 46.5195 5.84517C46.8775 5.37216 47.3675 5.00142 47.9897 4.73295C48.6161 4.46023 49.3683 4.32386 50.2461 4.32386C50.8725 4.32386 51.4499 4.39844 51.9783 4.54759C52.5067 4.69247 52.967 4.90554 53.359 5.18679C53.7511 5.46378 54.0536 5.80469 54.2667 6.20952C54.484 6.61435 54.5927 7.0767 54.5927 7.59659V14.2699H51.6523V12.902H51.5756C51.4009 13.2344 51.1772 13.5156 50.9045 13.7457C50.636 13.9759 50.3185 14.1484 49.9521 14.2635C49.5898 14.3786 49.1808 14.4361 48.7248 14.4361ZM49.69 12.3906C50.0266 12.3906 50.3292 12.3224 50.5977 12.1861C50.8704 12.0497 51.0877 11.8622 51.2496 11.6236C51.4116 11.3807 51.4925 11.0994 51.4925 10.7798V9.84659C51.4031 9.89347 51.2944 9.93608 51.1665 9.97443C51.043 10.0128 50.9066 10.049 50.7575 10.0831C50.6083 10.1172 50.4549 10.147 50.2972 10.1726C50.1396 10.1982 49.9883 10.2216 49.8434 10.2429C49.5494 10.2898 49.2979 10.3622 49.0891 10.4602C48.8846 10.5582 48.7269 10.6861 48.6161 10.8438C48.5096 10.9972 48.4563 11.1804 48.4563 11.3935C48.4563 11.7173 48.5714 11.9645 48.8015 12.1349C49.0359 12.3054 49.332 12.3906 49.69 12.3906Z" fill="#AC8D8D"/>
<path d="M61.0934 14.4553C60.0664 14.4553 59.18 14.2528 58.4343 13.848C57.6928 13.4389 57.1218 12.8572 56.7212 12.103C56.3249 11.3445 56.1268 10.4432 56.1268 9.39915C56.1268 8.38494 56.3271 7.49858 56.7276 6.74006C57.1282 5.97727 57.6928 5.38494 58.4215 4.96307C59.1502 4.53693 60.0089 4.32386 60.9975 4.32386C61.6964 4.32386 62.3356 4.43253 62.9151 4.64986C63.4947 4.86719 63.9954 5.18892 64.4173 5.61506C64.8391 6.04119 65.1673 6.56747 65.4016 7.19389C65.636 7.81605 65.7532 8.52983 65.7532 9.33523V10.1151H57.2198V8.29972H62.8448C62.8406 7.96733 62.7617 7.67117 62.6083 7.41122C62.4549 7.15128 62.244 6.94886 61.9755 6.80398C61.7113 6.65483 61.4066 6.58026 61.0614 6.58026C60.712 6.58026 60.3988 6.65909 60.1218 6.81676C59.8448 6.97017 59.6254 7.18111 59.4634 7.44957C59.3015 7.71378 59.2163 8.0142 59.2077 8.35085V10.1982C59.2077 10.5987 59.2866 10.9503 59.4442 11.2528C59.6019 11.5511 59.8256 11.7834 60.1154 11.9496C60.4052 12.1158 60.7504 12.1989 61.1509 12.1989C61.4279 12.1989 61.6793 12.1605 61.9052 12.0838C62.131 12.0071 62.3249 11.8942 62.4869 11.745C62.6488 11.5959 62.7702 11.4126 62.8512 11.1953L65.7212 11.2784C65.6019 11.9219 65.3398 12.4822 64.935 12.9595C64.5344 13.4325 64.0082 13.8011 63.3562 14.0653C62.7042 14.3253 61.9499 14.4553 61.0934 14.4553Z" fill="#AC8D8D"/>
<path d="M76.6101 4.4517L73.2415 14.2699H69.6619L66.2997 4.4517H69.5916L71.4006 11.2145H71.5028L73.3182 4.4517H76.6101Z" fill="#AC8D8D"/>
<path d="M86.3995 5.45526C86.3271 5.18679 86.2205 4.95028 86.0799 4.74574C85.9393 4.53693 85.7667 4.36009 85.5621 4.2152C85.3576 4.07031 85.1232 3.96165 84.859 3.8892C84.5948 3.8125 84.305 3.77415 83.9897 3.77415C83.3548 3.77415 82.805 3.92756 82.3406 4.23438C81.8803 4.54119 81.5245 4.98864 81.2731 5.5767C81.0217 6.16051 80.896 6.87003 80.896 7.70526C80.896 8.54475 81.0174 9.26065 81.2603 9.85298C81.5032 10.4453 81.8548 10.897 82.315 11.2081C82.7752 11.5192 83.3335 11.6747 83.9897 11.6747C84.5692 11.6747 85.0593 11.581 85.4599 11.3935C85.8647 11.2017 86.1715 10.9311 86.3803 10.5817C86.5891 10.2322 86.6935 9.82102 86.6935 9.34801L87.2816 9.41832H84.0984V7.1108H89.7425V8.84304C89.7425 10.0149 89.4933 11.0185 88.9947 11.8537C88.5004 12.6889 87.8185 13.3303 86.9492 13.7777C86.0842 14.2251 85.0891 14.4489 83.9641 14.4489C82.7156 14.4489 81.6182 14.1783 80.6722 13.6371C79.7262 13.0959 78.989 12.3246 78.4606 11.3232C77.9322 10.3175 77.668 9.12429 77.668 7.74361C77.668 6.66974 77.8278 5.71733 78.1474 4.88636C78.467 4.05114 78.9123 3.34375 79.4833 2.7642C80.0586 2.18466 80.7234 1.74574 81.4776 1.44744C82.2361 1.14915 83.0522 1 83.9258 1C84.6843 1 85.3896 1.10866 86.0415 1.32599C86.6978 1.54332 87.2773 1.85014 87.7802 2.24645C88.2873 2.64276 88.6985 3.11364 89.0138 3.65909C89.3292 4.20455 89.5252 4.80327 89.6019 5.45526H86.3995Z" fill="#AC8D8D"/>
<path d="M90.3929 1.17898H93.9277L96.6955 6.65696H96.8105L99.5783 1.17898H103.113L98.3255 9.89773V14.2699H95.1806V9.89773L90.3929 1.17898Z" fill="#AC8D8D"/>
<path d="M104.439 1.17898H108.358L111.682 9.28409H111.835L115.159 1.17898H119.077V14.2699H115.996V6.22869H115.888L112.743 14.1868H110.774L107.629 6.18395H107.52V14.2699H104.439V1.17898Z" fill="#AC8D8D"/>
<path d="M13.7315 5.45526C13.6591 5.18679 13.5526 4.95028 13.4119 4.74574C13.2713 4.53693 13.0987 4.36009 12.8942 4.2152C12.6896 4.07031 12.4553 3.96165 12.1911 3.8892C11.9268 3.8125 11.6371 3.77415 11.3217 3.77415C10.6868 3.77415 10.1371 3.92756 9.67259 4.23438C9.21236 4.54119 8.85653 4.98864 8.60511 5.5767C8.35369 6.16051 8.22798 6.87003 8.22798 7.70526C8.22798 8.54475 8.34943 9.26065 8.59233 9.85298C8.83523 10.4453 9.18679 10.897 9.64702 11.2081C10.1072 11.5192 10.6655 11.6747 11.3217 11.6747C11.9013 11.6747 12.3913 11.581 12.7919 11.3935C13.1967 11.2017 13.5036 10.9311 13.7124 10.5817C13.9212 10.2322 14.0256 9.82102 14.0256 9.34801L14.6136 9.41832H11.4304V7.1108H17.0746V8.84304C17.0746 10.0149 16.8253 11.0185 16.3267 11.8537C15.8324 12.6889 15.1506 13.3303 14.2812 13.7777C13.4162 14.2251 12.4212 14.4489 11.2962 14.4489C10.0476 14.4489 8.95028 14.1783 8.00426 13.6371C7.05824 13.0959 6.32102 12.3246 5.79261 11.3232C5.2642 10.3175 5 9.12429 5 7.74361C5 6.66974 5.1598 5.71733 5.4794 4.88636C5.79901 4.05114 6.24432 3.34375 6.81534 2.7642C7.39062 2.18466 8.0554 1.74574 8.80966 1.44744C9.56818 1.14915 10.3842 1 11.2578 1C12.0163 1 12.7216 1.10866 13.3736 1.32599C14.0298 1.54332 14.6094 1.85014 15.1122 2.24645C15.6193 2.64276 16.0305 3.11364 16.3459 3.65909C16.6612 4.20455 16.8572 4.80327 16.9339 5.45526H13.7315Z" stroke="white" stroke-width="2" mask="url(#path-1-outside-1_4_4)"/>
<path d="M25.274 10.032V4.4517H28.3933V14.2699H25.4146V12.4418H25.3123C25.095 13.0426 24.7243 13.5199 24.2001 13.8736C23.6802 14.223 23.0517 14.3977 22.3145 14.3977C21.6454 14.3977 21.0574 14.2443 20.5502 13.9375C20.0431 13.6307 19.649 13.2024 19.3677 12.6527C19.0865 12.0987 18.9437 11.451 18.9395 10.7095V4.4517H22.0652V10.0959C22.0694 10.6286 22.2101 11.0483 22.487 11.3551C22.764 11.6619 23.1412 11.8153 23.6184 11.8153C23.9295 11.8153 24.2086 11.7472 24.4558 11.6108C24.7072 11.4702 24.9054 11.2678 25.0502 11.0036C25.1994 10.7351 25.274 10.4112 25.274 10.032Z" stroke="white" stroke-width="2" mask="url(#path-1-outside-1_4_4)"/>
<path d="M33.5085 1.17898V14.2699H30.3828V1.17898H33.5085Z" stroke="white" stroke-width="2" mask="url(#path-1-outside-1_4_4)"/>
<path d="M37.4093 17.9517C37.0343 17.9517 36.6806 17.9219 36.3482 17.8622C36.0158 17.8068 35.7303 17.7322 35.4917 17.6385L36.182 15.3693C36.4888 15.4716 36.7658 15.5313 37.013 15.5483C37.2644 15.5653 37.4796 15.5249 37.6586 15.4268C37.8418 15.3331 37.9824 15.1648 38.0804 14.9219L38.2019 14.6278L34.7118 4.4517H37.9846L39.7935 11.4574H39.8958L41.7303 4.4517H45.0222L41.3212 15.2095C41.1422 15.7464 40.8887 16.2195 40.5605 16.6286C40.2367 17.0419 39.8169 17.3658 39.3013 17.6001C38.7899 17.8345 38.1593 17.9517 37.4093 17.9517Z" stroke="white" stroke-width="2" mask="url(#path-1-outside-1_4_4)"/>
<path d="M48.7248 14.4361C48.0984 14.4361 47.5423 14.3317 47.0565 14.1229C46.5749 13.9098 46.1935 13.5902 45.9123 13.1641C45.6353 12.7337 45.4968 12.1946 45.4968 11.5469C45.4968 11.0014 45.5927 10.5412 45.7844 10.1662C45.9762 9.79119 46.2404 9.48651 46.5771 9.25213C46.9137 9.01776 47.3015 8.84091 47.7404 8.72159C48.1793 8.59801 48.6481 8.51492 49.1467 8.4723C49.7049 8.42117 50.1545 8.3679 50.4954 8.3125C50.8363 8.25284 51.0835 8.16974 51.2369 8.06321C51.3945 7.95241 51.4734 7.79688 51.4734 7.59659V7.56463C51.4734 7.23651 51.3604 6.98295 51.1346 6.80398C50.9087 6.625 50.604 6.53551 50.2205 6.53551C49.8072 6.53551 49.4748 6.625 49.2234 6.80398C48.9719 6.98295 48.8121 7.23011 48.744 7.54545L45.8611 7.44318C45.9464 6.84659 46.1658 6.31392 46.5195 5.84517C46.8775 5.37216 47.3675 5.00142 47.9897 4.73295C48.6161 4.46023 49.3683 4.32386 50.2461 4.32386C50.8725 4.32386 51.4499 4.39844 51.9783 4.54759C52.5067 4.69247 52.967 4.90554 53.359 5.18679C53.7511 5.46378 54.0536 5.80469 54.2667 6.20952C54.484 6.61435 54.5927 7.0767 54.5927 7.59659V14.2699H51.6523V12.902H51.5756C51.4009 13.2344 51.1772 13.5156 50.9045 13.7457C50.636 13.9759 50.3185 14.1484 49.9521 14.2635C49.5898 14.3786 49.1808 14.4361 48.7248 14.4361ZM49.69 12.3906C50.0266 12.3906 50.3292 12.3224 50.5977 12.1861C50.8704 12.0497 51.0877 11.8622 51.2496 11.6236C51.4116 11.3807 51.4925 11.0994 51.4925 10.7798V9.84659C51.4031 9.89347 51.2944 9.93608 51.1665 9.97443C51.043 10.0128 50.9066 10.049 50.7575 10.0831C50.6083 10.1172 50.4549 10.147 50.2972 10.1726C50.1396 10.1982 49.9883 10.2216 49.8434 10.2429C49.5494 10.2898 49.2979 10.3622 49.0891 10.4602C48.8846 10.5582 48.7269 10.6861 48.6161 10.8438C48.5096 10.9972 48.4563 11.1804 48.4563 11.3935C48.4563 11.7173 48.5714 11.9645 48.8015 12.1349C49.0359 12.3054 49.332 12.3906 49.69 12.3906Z" stroke="white" stroke-width="2" mask="url(#path-1-outside-1_4_4)"/>
<path d="M61.0934 14.4553C60.0664 14.4553 59.18 14.2528 58.4343 13.848C57.6928 13.4389 57.1218 12.8572 56.7212 12.103C56.3249 11.3445 56.1268 10.4432 56.1268 9.39915C56.1268 8.38494 56.3271 7.49858 56.7276 6.74006C57.1282 5.97727 57.6928 5.38494 58.4215 4.96307C59.1502 4.53693 60.0089 4.32386 60.9975 4.32386C61.6964 4.32386 62.3356 4.43253 62.9151 4.64986C63.4947 4.86719 63.9954 5.18892 64.4173 5.61506C64.8391 6.04119 65.1673 6.56747 65.4016 7.19389C65.636 7.81605 65.7532 8.52983 65.7532 9.33523V10.1151H57.2198V8.29972H62.8448C62.8406 7.96733 62.7617 7.67117 62.6083 7.41122C62.4549 7.15128 62.244 6.94886 61.9755 6.80398C61.7113 6.65483 61.4066 6.58026 61.0614 6.58026C60.712 6.58026 60.3988 6.65909 60.1218 6.81676C59.8448 6.97017 59.6254 7.18111 59.4634 7.44957C59.3015 7.71378 59.2163 8.0142 59.2077 8.35085V10.1982C59.2077 10.5987 59.2866 10.9503 59.4442 11.2528C59.6019 11.5511 59.8256 11.7834 60.1154 11.9496C60.4052 12.1158 60.7504 12.1989 61.1509 12.1989C61.4279 12.1989 61.6793 12.1605 61.9052 12.0838C62.131 12.0071 62.3249 11.8942 62.4869 11.745C62.6488 11.5959 62.7702 11.4126 62.8512 11.1953L65.7212 11.2784C65.6019 11.9219 65.3398 12.4822 64.935 12.9595C64.5344 13.4325 64.0082 13.8011 63.3562 14.0653C62.7042 14.3253 61.9499 14.4553 61.0934 14.4553Z" stroke="white" stroke-width="2" mask="url(#path-1-outside-1_4_4)"/>
<path d="M76.6101 4.4517L73.2415 14.2699H69.6619L66.2997 4.4517H69.5916L71.4006 11.2145H71.5028L73.3182 4.4517H76.6101Z" stroke="white" stroke-width="2" mask="url(#path-1-outside-1_4_4)"/>
<path d="M86.3995 5.45526C86.3271 5.18679 86.2205 4.95028 86.0799 4.74574C85.9393 4.53693 85.7667 4.36009 85.5621 4.2152C85.3576 4.07031 85.1232 3.96165 84.859 3.8892C84.5948 3.8125 84.305 3.77415 83.9897 3.77415C83.3548 3.77415 82.805 3.92756 82.3406 4.23438C81.8803 4.54119 81.5245 4.98864 81.2731 5.5767C81.0217 6.16051 80.896 6.87003 80.896 7.70526C80.896 8.54475 81.0174 9.26065 81.2603 9.85298C81.5032 10.4453 81.8548 10.897 82.315 11.2081C82.7752 11.5192 83.3335 11.6747 83.9897 11.6747C84.5692 11.6747 85.0593 11.581 85.4599 11.3935C85.8647 11.2017 86.1715 10.9311 86.3803 10.5817C86.5891 10.2322 86.6935 9.82102 86.6935 9.34801L87.2816 9.41832H84.0984V7.1108H89.7425V8.84304C89.7425 10.0149 89.4933 11.0185 88.9947 11.8537C88.5004 12.6889 87.8185 13.3303 86.9492 13.7777C86.0842 14.2251 85.0891 14.4489 83.9641 14.4489C82.7156 14.4489 81.6182 14.1783 80.6722 13.6371C79.7262 13.0959 78.989 12.3246 78.4606 11.3232C77.9322 10.3175 77.668 9.12429 77.668 7.74361C77.668 6.66974 77.8278 5.71733 78.1474 4.88636C78.467 4.05114 78.9123 3.34375 79.4833 2.7642C80.0586 2.18466 80.7234 1.74574 81.4776 1.44744C82.2361 1.14915 83.0522 1 83.9258 1C84.6843 1 85.3896 1.10866 86.0415 1.32599C86.6978 1.54332 87.2773 1.85014 87.7802 2.24645C88.2873 2.64276 88.6985 3.11364 89.0138 3.65909C89.3292 4.20455 89.5252 4.80327 89.6019 5.45526H86.3995Z" stroke="white" stroke-width="2" mask="url(#path-1-outside-1_4_4)"/>
<path d="M90.3929 1.17898H93.9277L96.6955 6.65696H96.8105L99.5783 1.17898H103.113L98.3255 9.89773V14.2699H95.1806V9.89773L90.3929 1.17898Z" stroke="white" stroke-width="2" mask="url(#path-1-outside-1_4_4)"/>
<path d="M104.439 1.17898H108.358L111.682 9.28409H111.835L115.159 1.17898H119.077V14.2699H115.996V6.22869H115.888L112.743 14.1868H110.774L107.629 6.18395H107.52V14.2699H104.439V1.17898Z" stroke="white" stroke-width="2" mask="url(#path-1-outside-1_4_4)"/>
</g>
<defs>
<filter id="filter0_d_4_4" x="0" y="0" width="124.077" height="26.9517" filterUnits="userSpaceOnUse" color-interpolation-filters="sRGB">
<feFlood flood-opacity="0" result="BackgroundImageFix"/>
<feColorMatrix in="SourceAlpha" type="matrix" values="0 0 0 0 0 0 0 0 0 0 0 0 0 0 0 0 0 0 127 0" result="hardAlpha"/>
<feOffset dy="4"/>
<feGaussianBlur stdDeviation="2"/>
<feComposite in2="hardAlpha" operator="out"/>
<feColorMatrix type="matrix" values="0 0 0 0 0 0 0 0 0 0 0 0 0 0 0 0 0 0 0.25 0"/>
<feBlend mode="normal" in2="BackgroundImageFix" result="effect1_dropShadow_4_4"/>
<feBlend mode="normal" in="SourceGraphic" in2="effect1_dropShadow_4_4" result="shape"/>
</filter>
</defs>
</svg>
