<svg width="116" height="22" viewBox="0 0 116 22" fill="none" xmlns="http://www.w3.org/2000/svg">
<path d="M9.58168 9.18537C9.50923 8.9169 9.4027 8.6804 9.26207 8.47585C9.12145 8.26705 8.94886 8.0902 8.74432 7.94531C8.53977 7.80043 8.3054 7.69176 8.04119 7.61932C7.77699 7.54261 7.48722 7.50426 7.17188 7.50426C6.53693 7.50426 5.98722 7.65767 5.52273 7.96449C5.0625 8.27131 4.70668 8.71875 4.45526 9.30682C4.20384 9.89062 4.07812 10.6001 4.07812 11.4354C4.07812 12.2749 4.19957 12.9908 4.44247 13.5831C4.68537 14.1754 5.03693 14.6271 5.49716 14.9382C5.95739 15.2493 6.51562 15.4048 7.17188 15.4048C7.75142 15.4048 8.24148 15.3111 8.64205 15.1236C9.04688 14.9318 9.35369 14.6612 9.5625 14.3118C9.77131 13.9624 9.87571 13.5511 9.87571 13.0781L10.4638 13.1484H7.28054V10.8409H12.9247V12.5732C12.9247 13.745 12.6754 14.7486 12.1768 15.5838C11.6825 16.419 11.0007 17.0604 10.1314 17.5078C9.26634 17.9553 8.27131 18.179 7.14631 18.179C5.89773 18.179 4.80043 17.9084 3.8544 17.3672C2.90838 16.826 2.17116 16.0547 1.64276 15.0533C1.11435 14.0476 0.850142 12.8544 0.850142 11.4737C0.850142 10.3999 1.00994 9.44744 1.32955 8.61648C1.64915 7.78125 2.09446 7.07386 2.66548 6.49432C3.24077 5.91477 3.90554 5.47585 4.6598 5.17756C5.41832 4.87926 6.23438 4.73011 7.10795 4.73011C7.86648 4.73011 8.57173 4.83878 9.22372 5.05611C9.87997 5.27344 10.4595 5.58026 10.9624 5.97656C11.4695 6.37287 11.8807 6.84375 12.196 7.3892C12.5114 7.93466 12.7074 8.53338 12.7841 9.18537H9.58168ZM21.1241 13.7621V8.18182H24.2434V18H21.2647V16.1719H21.1625C20.9451 16.7727 20.5744 17.25 20.0502 17.6037C19.5304 17.9531 18.9018 18.1278 18.1646 18.1278C17.4956 18.1278 16.9075 17.9744 16.4004 17.6676C15.8933 17.3608 15.4991 16.9325 15.2179 16.3828C14.9366 15.8288 14.7939 15.1811 14.7896 14.4396V8.18182H17.9153V13.826C17.9196 14.3587 18.0602 14.7784 18.3372 15.0852C18.6142 15.392 18.9913 15.5455 19.4686 15.5455C19.7797 15.5455 20.0588 15.4773 20.3059 15.3409C20.5574 15.2003 20.7555 14.9979 20.9004 14.7337C21.0495 14.4652 21.1241 14.1413 21.1241 13.7621ZM29.3587 4.90909V18H26.233V4.90909H29.3587ZM33.2594 21.6818C32.8844 21.6818 32.5307 21.652 32.1983 21.5923C31.8659 21.5369 31.5804 21.4624 31.3418 21.3686L32.0321 19.0994C32.339 19.2017 32.6159 19.2614 32.8631 19.2784C33.1145 19.2955 33.3297 19.255 33.5087 19.157C33.6919 19.0632 33.8326 18.8949 33.9306 18.652L34.052 18.358L30.562 8.18182H33.8347L35.6436 15.1875H35.7459L37.5804 8.18182H40.8723L37.1713 18.9396C36.9924 19.4766 36.7388 19.9496 36.4107 20.3587C36.0868 20.772 35.6671 21.0959 35.1515 21.3303C34.6401 21.5646 34.0094 21.6818 33.2594 21.6818ZM44.5749 18.1662C43.9485 18.1662 43.3924 18.0618 42.9066 17.853C42.4251 17.6399 42.0437 17.3203 41.7624 16.8942C41.4854 16.4638 41.3469 15.9247 41.3469 15.277C41.3469 14.7315 41.4428 14.2713 41.6346 13.8963C41.8263 13.5213 42.0906 13.2166 42.4272 12.9822C42.7638 12.7479 43.1516 12.571 43.5906 12.4517C44.0295 12.3281 44.4982 12.245 44.9968 12.2024C45.555 12.1513 46.0046 12.098 46.3455 12.0426C46.6864 11.983 46.9336 11.8999 47.087 11.7933C47.2447 11.6825 47.3235 11.527 47.3235 11.3267V11.2947C47.3235 10.9666 47.2106 10.7131 46.9847 10.5341C46.7589 10.3551 46.4542 10.2656 46.0707 10.2656C45.6573 10.2656 45.3249 10.3551 45.0735 10.5341C44.8221 10.7131 44.6623 10.9602 44.5941 11.2756L41.7113 11.1733C41.7965 10.5767 42.016 10.044 42.3697 9.57528C42.7276 9.10227 43.2177 8.73153 43.8398 8.46307C44.4663 8.19034 45.2184 8.05398 46.0962 8.05398C46.7227 8.05398 47.3001 8.12855 47.8285 8.2777C48.3569 8.42258 48.8171 8.63565 49.2092 8.9169C49.6012 9.19389 49.9038 9.5348 50.1168 9.93963C50.3342 10.3445 50.4428 10.8068 50.4428 11.3267V18H47.5025V16.6321H47.4258C47.2511 16.9645 47.0273 17.2457 46.7546 17.4759C46.4862 17.706 46.1687 17.8786 45.8022 17.9936C45.44 18.1087 45.0309 18.1662 44.5749 18.1662ZM45.5401 16.1207C45.8768 16.1207 46.1793 16.0526 46.4478 15.9162C46.7205 15.7798 46.9379 15.5923 47.0998 15.3537C47.2617 15.1108 47.3427 14.8295 47.3427 14.5099V13.5767C47.2532 13.6236 47.1445 13.6662 47.0167 13.7045C46.8931 13.7429 46.7567 13.7791 46.6076 13.8132C46.4585 13.8473 46.305 13.8771 46.1474 13.9027C45.9897 13.9283 45.8384 13.9517 45.6935 13.973C45.3995 14.0199 45.1481 14.0923 44.9393 14.1903C44.7347 14.2884 44.5771 14.4162 44.4663 14.5739C44.3597 14.7273 44.3065 14.9105 44.3065 15.1236C44.3065 15.4474 44.4215 15.6946 44.6516 15.8651C44.886 16.0355 45.1822 16.1207 45.5401 16.1207ZM56.9435 18.1854C55.9165 18.1854 55.0302 17.983 54.2844 17.5781C53.543 17.169 52.9719 16.5874 52.5714 15.8331C52.1751 15.0746 51.9769 14.1733 51.9769 13.1293C51.9769 12.1151 52.1772 11.2287 52.5778 10.4702C52.9783 9.70739 53.543 9.11506 54.2717 8.69318C55.0004 8.26705 55.859 8.05398 56.8477 8.05398C57.5465 8.05398 58.1857 8.16264 58.7653 8.37997C59.3448 8.5973 59.8455 8.91903 60.2674 9.34517C60.6893 9.77131 61.0174 10.2976 61.2518 10.924C61.4862 11.5462 61.6033 12.2599 61.6033 13.0653V13.8452H53.07V12.0298H58.695C58.6907 11.6974 58.6119 11.4013 58.4585 11.1413C58.305 10.8814 58.0941 10.679 57.8256 10.5341C57.5614 10.3849 57.2567 10.3104 56.9116 10.3104C56.5621 10.3104 56.2489 10.3892 55.9719 10.5469C55.695 10.7003 55.4755 10.9112 55.3136 11.1797C55.1516 11.4439 55.0664 11.7443 55.0579 12.081V13.9283C55.0579 14.3288 55.1367 14.6804 55.2944 14.983C55.4521 15.2812 55.6758 15.5135 55.9656 15.6797C56.2553 15.8459 56.6005 15.929 57.0011 15.929C57.2781 15.929 57.5295 15.8906 57.7553 15.8139C57.9812 15.7372 58.1751 15.6243 58.337 15.4751C58.4989 15.326 58.6204 15.1428 58.7013 14.9254L61.5714 15.0085C61.4521 15.652 61.19 16.2124 60.7852 16.6896C60.3846 17.1626 59.8583 17.5312 59.2063 17.7955C58.5543 18.0554 57.8001 18.1854 56.9435 18.1854ZM72.4602 8.18182L69.0916 18H65.5121L62.1499 8.18182H65.4418L67.2507 14.9446H67.353L69.1683 8.18182H72.4602ZM82.2496 9.18537C82.1772 8.9169 82.0707 8.6804 81.93 8.47585C81.7894 8.26705 81.6168 8.0902 81.4123 7.94531C81.2077 7.80043 80.9734 7.69176 80.7092 7.61932C80.445 7.54261 80.1552 7.50426 79.8398 7.50426C79.2049 7.50426 78.6552 7.65767 78.1907 7.96449C77.7305 8.27131 77.3746 8.71875 77.1232 9.30682C76.8718 9.89062 76.7461 10.6001 76.7461 11.4354C76.7461 12.2749 76.8675 12.9908 77.1104 13.5831C77.3533 14.1754 77.7049 14.6271 78.1651 14.9382C78.6254 15.2493 79.1836 15.4048 79.8398 15.4048C80.4194 15.4048 80.9094 15.3111 81.31 15.1236C81.7148 14.9318 82.0217 14.6612 82.2305 14.3118C82.4393 13.9624 82.5437 13.5511 82.5437 13.0781L83.1317 13.1484H79.9485V10.8409H85.5927V12.5732C85.5927 13.745 85.3434 14.7486 84.8448 15.5838C84.3505 16.419 83.6687 17.0604 82.7994 17.5078C81.9343 17.9553 80.9393 18.179 79.8143 18.179C78.5657 18.179 77.4684 17.9084 76.5224 17.3672C75.5763 16.826 74.8391 16.0547 74.3107 15.0533C73.7823 14.0476 73.5181 12.8544 73.5181 11.4737C73.5181 10.3999 73.6779 9.44744 73.9975 8.61648C74.3171 7.78125 74.7624 7.07386 75.3335 6.49432C75.9087 5.91477 76.5735 5.47585 77.3278 5.17756C78.0863 4.87926 78.9023 4.73011 79.7759 4.73011C80.5344 4.73011 81.2397 4.83878 81.8917 5.05611C82.5479 5.27344 83.1275 5.58026 83.6303 5.97656C84.1374 6.37287 84.5487 6.84375 84.864 7.3892C85.1793 7.93466 85.3754 8.53338 85.4521 9.18537H82.2496ZM86.2431 4.90909H89.7779L92.5456 10.3871H92.6607L95.4284 4.90909H98.9632L94.1756 13.6278V18H91.0307V13.6278L86.2431 4.90909ZM100.29 4.90909H104.208L107.532 13.0142H107.685L111.009 4.90909H114.927V18H111.846V9.95881H111.738L108.593 17.9169H106.624L103.479 9.91406H103.371V18H100.29V4.90909Z" fill="#AC8D8D"/>
</svg>
